<svg xmlns="http://www.w3.org/2000/svg" xmlns:xlink="http://www.w3.org/1999/xlink" width="500" zoomAndPan="magnify" viewBox="0 0 375 374.999991" height="500" preserveAspectRatio="xMidYMid meet" version="1.0"><defs><clipPath id="3f59744fef"><path d="M 50.898438 127 L 323.234375 127 L 323.234375 337 L 50.898438 337 Z M 50.898438 127 " clip-rule="nonzero"/></clipPath><clipPath id="af1c5f87e0"><path d="M 50.898438 37 L 323.234375 37 L 323.234375 246.507812 L 50.898438 246.507812 Z M 50.898438 37 " clip-rule="nonzero"/></clipPath></defs><path fill="#0e7490" d="M 106.808594 37.839844 C 96.167969 36.183594 85.257812 38.167969 75.273438 43.984375 C 59.804688 52.84375 50.945312 68.175781 50.945312 86.019531 L 50.945312 287.796875 C 50.945312 305.644531 59.804688 320.976562 75.273438 329.902344 C 90.742188 338.820312 108.460938 338.820312 123.933594 329.902344 L 154.28125 312.386719 C 145.160156 314.039062 135.703125 312.386719 127.109375 307.425781 C 114.214844 300.027344 106.808594 287.207031 106.808594 272.332031 L 106.808594 104.261719 C 106.808594 89.390625 114.214844 76.636719 127.109375 69.167969 C 140 61.695312 154.746094 61.695312 167.636719 69.167969 L 123.933594 43.917969 C 118.445312 40.746094 112.695312 38.765625 106.808594 37.839844 Z M 106.808594 37.839844 " fill-opacity="1" fill-rule="evenodd"/><path fill="#0e7490" d="M 50.945312 283.238281 C 65.554688 290.308594 81.820312 289.714844 96.167969 281.457031 L 183.570312 231.023438 L 270.972656 180.597656 C 285.1875 172.40625 293.78125 158.789062 295.105469 142.792969 L 248.496094 115.894531 C 245.785156 126.003906 239.238281 134.398438 229.652344 139.949219 L 156.796875 181.988281 L 148.664062 186.675781 L 84.003906 223.953125 C 73.554688 229.96875 61.851562 231.15625 50.945312 227.390625 Z M 50.945312 283.238281 " fill-opacity="1" fill-rule="evenodd"/><g clip-path="url(#3f59744fef)"><path fill="#14b8a6" d="M 54.183594 305.710938 C 58.085938 315.757812 65.292969 324.21875 75.273438 329.96875 C 90.742188 338.886719 108.460938 338.886719 123.933594 329.96875 L 211.339844 279.539062 L 298.742188 229.109375 C 314.210938 220.1875 323.070312 204.855469 323.070312 187.007812 C 323.070312 169.164062 314.210938 153.832031 298.742188 144.910156 L 268.394531 127.394531 C 274.410156 134.464844 277.71875 143.453125 277.71875 153.367188 C 277.71875 168.238281 270.308594 180.992188 257.484375 188.460938 L 184.625 230.5 L 176.492188 235.1875 L 111.769531 272.464844 C 98.875 279.933594 84.132812 279.933594 71.238281 272.464844 C 58.347656 265.0625 50.945312 252.242188 50.945312 237.371094 L 50.945312 287.796875 C 50.945312 294.144531 52.066406 300.160156 54.183594 305.710938 Z M 54.183594 305.710938 " fill-opacity="1" fill-rule="evenodd"/></g><path fill="#14b8a6" d="M 50.945312 90.644531 C 65.554688 83.574219 81.820312 84.171875 96.167969 92.433594 L 183.570312 142.859375 L 270.972656 193.289062 C 285.1875 201.484375 293.78125 215.097656 295.105469 231.089844 L 248.496094 257.992188 C 245.785156 247.945312 239.238281 239.484375 229.652344 233.933594 L 156.796875 191.902344 L 148.664062 187.207031 L 84.003906 149.929688 C 73.554688 143.917969 61.851562 142.726562 50.945312 146.496094 Z M 50.945312 90.644531 " fill-opacity="1" fill-rule="evenodd"/><g clip-path="url(#af1c5f87e0)"><path fill="#0e7490" d="M 54.183594 68.175781 C 58.085938 58.128906 65.292969 49.671875 75.273438 43.917969 C 90.742188 34.996094 108.460938 34.996094 123.933594 43.917969 L 211.339844 94.347656 L 298.742188 144.777344 C 314.210938 153.699219 323.070312 169.03125 323.070312 186.875 C 323.070312 204.722656 314.210938 220.054688 298.742188 228.980469 L 268.394531 246.492188 C 274.410156 239.417969 277.71875 230.433594 277.71875 220.519531 C 277.71875 205.644531 270.308594 192.890625 257.484375 185.421875 L 184.625 143.386719 L 176.492188 138.695312 L 111.769531 101.417969 C 98.875 94.019531 84.132812 93.953125 71.238281 101.417969 C 58.347656 108.820312 50.945312 121.644531 50.945312 136.515625 L 50.945312 86.085938 C 50.945312 79.742188 52.066406 73.726562 54.183594 68.175781 Z M 54.183594 68.175781 " fill-opacity="1" fill-rule="evenodd"/></g></svg>