<svg xmlns="http://www.w3.org/2000/svg" xmlns:xlink="http://www.w3.org/1999/xlink" width="500" zoomAndPan="magnify" viewBox="0 0 375 374.999991" height="500" preserveAspectRatio="xMidYMid meet" version="1.0"><defs><g/><clipPath id="2e6bbc5a6b"><path d="M 37.5 150 L 67 150 L 67 225 L 37.5 225 Z M 37.5 150 " clip-rule="nonzero"/></clipPath><clipPath id="aab6b1aecf"><path d="M 37.5 169 L 99 169 L 99 213 L 37.5 213 Z M 37.5 169 " clip-rule="nonzero"/></clipPath><clipPath id="10926e3dca"><path d="M 37.5 172 L 105 172 L 105 225 L 37.5 225 Z M 37.5 172 " clip-rule="nonzero"/></clipPath><clipPath id="dec2170113"><path d="M 37.5 162 L 99 162 L 99 206 L 37.5 206 Z M 37.5 162 " clip-rule="nonzero"/></clipPath><clipPath id="9054fb1d8c"><path d="M 37.5 150 L 105 150 L 105 203 L 37.5 203 Z M 37.5 150 " clip-rule="nonzero"/></clipPath></defs><g clip-path="url(#2e6bbc5a6b)"><path fill="#176b87" d="M 51.382812 150.703125 C 48.746094 150.292969 46.042969 150.78125 43.566406 152.21875 C 39.734375 154.402344 37.539062 158.1875 37.539062 162.59375 L 37.539062 212.390625 C 37.539062 216.796875 39.734375 220.578125 43.566406 222.78125 C 47.402344 224.984375 51.789062 224.984375 55.625 222.78125 L 63.140625 218.460938 C 60.882812 218.867188 58.539062 218.460938 56.410156 217.234375 C 53.214844 215.410156 51.382812 212.246094 51.382812 208.574219 L 51.382812 167.09375 C 51.382812 163.425781 53.214844 160.277344 56.410156 158.433594 C 59.605469 156.589844 63.257812 156.589844 66.449219 158.433594 L 55.625 152.203125 C 54.265625 151.417969 52.839844 150.929688 51.382812 150.703125 Z M 51.382812 150.703125 " fill-opacity="1" fill-rule="evenodd"/></g><g clip-path="url(#aab6b1aecf)"><path fill="#176b87" d="M 37.539062 211.265625 C 41.160156 213.011719 45.191406 212.863281 48.746094 210.824219 L 92.050781 185.933594 C 95.574219 183.910156 97.703125 180.550781 98.03125 176.605469 L 86.484375 169.964844 C 85.8125 172.460938 84.191406 174.53125 81.816406 175.902344 L 63.765625 186.277344 L 61.75 187.433594 L 45.730469 196.632812 C 43.140625 198.117188 40.242188 198.414062 37.539062 197.484375 Z M 37.539062 211.265625 " fill-opacity="1" fill-rule="evenodd"/></g><g clip-path="url(#10926e3dca)"><path fill="#64ccc5" d="M 38.34375 216.8125 C 39.308594 219.289062 41.09375 221.378906 43.566406 222.796875 C 47.402344 225 51.789062 225 55.625 222.796875 L 77.277344 210.351562 L 98.933594 197.90625 C 102.765625 195.703125 104.960938 191.921875 104.960938 187.515625 C 104.960938 183.113281 102.765625 179.328125 98.933594 177.125 L 91.414062 172.804688 C 92.902344 174.546875 93.722656 176.765625 93.722656 179.214844 C 93.722656 182.882812 91.886719 186.03125 88.710938 187.875 L 70.660156 198.25 L 68.644531 199.40625 L 52.609375 208.605469 C 49.414062 210.449219 45.761719 210.449219 42.570312 208.605469 C 39.375 206.78125 37.539062 203.617188 37.539062 199.945312 L 37.539062 212.390625 C 37.539062 213.957031 37.820312 215.441406 38.34375 216.8125 Z M 38.34375 216.8125 " fill-opacity="1" fill-rule="evenodd"/></g><g clip-path="url(#dec2170113)"><path fill="#64ccc5" d="M 37.539062 163.734375 C 41.160156 161.988281 45.191406 162.136719 48.746094 164.175781 L 92.050781 189.066406 C 95.574219 191.089844 97.703125 194.449219 98.03125 198.394531 L 86.484375 205.035156 C 85.8125 202.554688 84.191406 200.46875 81.816406 199.097656 L 63.765625 188.722656 L 61.75 187.566406 L 45.730469 178.367188 C 43.140625 176.882812 40.242188 176.585938 37.539062 177.515625 Z M 37.539062 163.734375 " fill-opacity="1" fill-rule="evenodd"/></g><g clip-path="url(#9054fb1d8c)"><path fill="#176b87" d="M 38.34375 158.1875 C 39.308594 155.710938 41.09375 153.621094 43.566406 152.203125 C 47.402344 150 51.789062 150 55.625 152.203125 L 77.277344 164.648438 L 98.933594 177.09375 C 102.765625 179.296875 104.960938 183.078125 104.960938 187.484375 C 104.960938 191.886719 102.765625 195.671875 98.933594 197.875 L 91.414062 202.195312 C 92.902344 200.453125 93.722656 198.234375 93.722656 195.785156 C 93.722656 192.117188 91.886719 188.96875 88.710938 187.125 L 70.660156 176.75 L 68.644531 175.59375 L 52.609375 166.394531 C 49.414062 164.566406 45.761719 164.550781 42.570312 166.394531 C 39.375 168.21875 37.539062 171.382812 37.539062 175.054688 L 37.539062 162.609375 C 37.539062 161.042969 37.820312 159.558594 38.34375 158.1875 Z M 38.34375 158.1875 " fill-opacity="1" fill-rule="evenodd"/></g><g fill="#64ccc5" fill-opacity="1"><g transform="translate(117.039014, 206.458683)"><g><path d="M 27.171875 -7.265625 L 11.96875 -7.265625 L 9.453125 0 L 1.421875 0 L 15.140625 -38.203125 L 24.046875 -38.203125 L 37.765625 0 L 29.671875 0 Z M 25.09375 -13.390625 L 19.5625 -29.34375 L 14.046875 -13.390625 Z M 25.09375 -13.390625 "/></g></g></g><g fill="#64ccc5" fill-opacity="1"><g transform="translate(158.472869, 206.458683)"><g><path d="M 36.40625 0 L 28.75 0 L 11.421875 -26.1875 L 11.421875 0 L 3.765625 0 L 3.765625 -38.203125 L 11.421875 -38.203125 L 28.75 -11.96875 L 28.75 -38.203125 L 36.40625 -38.203125 Z M 36.40625 0 "/></g></g></g><g fill="#64ccc5" fill-opacity="1"><g transform="translate(200.945292, 206.458683)"><g><path d="M 11.421875 -38.15625 L 11.421875 0 L 3.765625 0 L 3.765625 -38.15625 Z M 11.421875 -38.15625 "/></g></g></g><g fill="#64ccc5" fill-opacity="1"><g transform="translate(218.437313, 206.458683)"><g><path d="M 31.59375 -26.34375 C 31.59375 -24.300781 31.109375 -22.382812 30.140625 -20.59375 C 29.171875 -18.8125 27.65625 -17.375 25.59375 -16.28125 C 23.539062 -15.1875 20.945312 -14.640625 17.8125 -14.640625 L 11.421875 -14.640625 L 11.421875 0 L 3.765625 0 L 3.765625 -38.15625 L 17.8125 -38.15625 C 20.769531 -38.15625 23.285156 -37.644531 25.359375 -36.625 C 27.429688 -35.601562 28.988281 -34.195312 30.03125 -32.40625 C 31.070312 -30.625 31.59375 -28.601562 31.59375 -26.34375 Z M 17.484375 -20.828125 C 19.597656 -20.828125 21.164062 -21.304688 22.1875 -22.265625 C 23.207031 -23.234375 23.71875 -24.59375 23.71875 -26.34375 C 23.71875 -30.0625 21.640625 -31.921875 17.484375 -31.921875 L 11.421875 -31.921875 L 11.421875 -20.828125 Z M 17.484375 -20.828125 "/></g></g></g><g fill="#64ccc5" fill-opacity="1"><g transform="translate(253.9677, 206.458683)"><g><path d="M 11.421875 -6.0625 L 24 -6.0625 L 24 0 L 3.765625 0 L 3.765625 -38.15625 L 11.421875 -38.15625 Z M 11.421875 -6.0625 "/></g></g></g><g fill="#64ccc5" fill-opacity="1"><g transform="translate(281.353494, 206.458683)"><g><path d="M 11.421875 -38.15625 L 11.421875 0 L 3.765625 0 L 3.765625 -38.15625 Z M 11.421875 -38.15625 "/></g></g></g><g fill="#64ccc5" fill-opacity="1"><g transform="translate(298.845506, 206.458683)"><g><path d="M 26.625 0 L 18.359375 -12.84375 L 10.875 0 L 2.234375 0 L 14.265625 -19.234375 L 2.078125 -38.15625 L 10.875 -38.15625 L 19.125 -25.359375 L 26.5625 -38.15625 L 35.203125 -38.15625 L 23.234375 -18.96875 L 35.421875 0 Z M 26.625 0 "/></g></g></g></svg>